<svg xmlns:mydata="http://www.w3.org/2000/svg" mydata:contrastcolor="00AB84" mydata:template="Default" mydata:presentation="2.5" mydata:layoutType="undefined" mydata:specialFontId="undefined" mydata:id1="905" mydata:id2="905" mydata:companyName="XC" mydata:companyTagline="" version="1.1" xmlns="http://www.w3.org/2000/svg" xmlns:xlink="http://www.w3.org/1999/xlink" width="550" height="940"><g fill="#00b08b" fill-rule="nonzero" stroke="none" stroke-width="1" stroke-linecap="butt" stroke-linejoin="miter" stroke-miterlimit="10" stroke-dasharray="" stroke-dashoffset="0" font-family="none" font-weight="none" font-size="none" text-anchor="none" style="mix-blend-mode: normal"><g data-paper-data="{&quot;isGlobalGroup&quot;:true}"><g data-paper-data="{&quot;isPrimaryText&quot;:true}"><path d="M167.38193,320.5978c2.50493,0 5.26035,-1.25247 6.76331,-3.25641l25.55029,-32.56409c0.75148,-0.75148 2.00394,-1.25247 3.00592,-1.25247c1.25247,0 2.25444,0.50099 3.00592,1.50296c12.02367,17.03353 20.79092,29.55818 22.04339,32.06311c1.50296,2.50493 4.00789,3.5069 6.76331,3.5069c1.75345,0 3.7574,-0.50099 5.26035,-1.50296l36.32149,-22.29388c2.50493,-1.75345 4.00789,-4.50887 4.00789,-7.51479c0,-1.75345 -0.50099,-3.25641 -1.75345,-4.75937l-37.32346,-47.34318c-0.50099,-0.75148 -1.00197,-1.50296 -1.00197,-2.25444c0,-0.75148 0.25049,-1.75345 1.00197,-2.25444l37.32346,-47.34318c1.25247,-1.50296 1.75345,-3.00592 1.75345,-4.75937c0,-3.00592 -1.50296,-5.76134 -4.00789,-7.2643l-36.32149,-22.29388c-1.75345,-1.00197 -3.5069,-1.50296 -5.51085,-1.50296c-2.50493,0 -5.00986,1.00197 -6.51282,3.5069c-1.25247,2.25444 -10.01972,15.02958 -22.04339,31.81262c-0.75148,1.00197 -1.75345,1.75345 -3.00592,1.75345c-1.00197,0 -2.25444,-0.50099 -3.00592,-1.50296l-25.55029,-32.3136c-2.00394,-2.50493 -5.00986,-3.7574 -8.26627,-3.25641c-21.5424,2.00394 -37.82445,3.25641 -40.57987,3.25641c-4.75937,0 -7.76528,4.75937 -7.76528,9.51874l1.25247,42.33332c0.25049,4.75937 4.50887,8.76726 9.26824,8.01578l21.04142,-3.00592c1.50296,-0.25049 2.75542,0.25049 3.7574,1.50296c4.75937,6.76331 10.27021,14.02761 15.53057,21.5424c0.50099,0.75148 0.75148,1.50296 0.75148,2.25444c0,0.75148 -0.25049,1.50296 -0.75148,2.25444c-14.2781,20.03944 -27.80473,38.57593 -36.071,49.09664c-1.25247,1.75345 -1.75345,3.5069 -1.75345,5.51085v1.25247c0.50099,2.25444 1.75345,4.25838 3.7574,5.76134l27.80473,20.03944c1.50296,1.25247 3.5069,1.75345 5.26035,1.75345z" data-paper-data="{&quot;glyphName&quot;:&quot;X&quot;,&quot;glyphIndex&quot;:0,&quot;firstGlyphOfWord&quot;:true,&quot;word&quot;:1}"></path><path d="M379.80002,311.83055c12.27416,0 23.04536,-1.25247 35.06903,-2.25444c2.50493,0 4.50887,-1.25247 6.01183,-3.00592c1.50296,-2.00394 2.00394,-4.25838 2.00394,-6.76331c-0.50099,-9.01775 -1.50296,-19.78895 -2.00394,-28.8067c0,-4.75937 -4.25838,-8.01578 -8.76726,-7.76528c-6.51282,0 -10.7712,9.51874 -34.31755,9.51874c-24.29782,-0.75148 -28.8067,-18.78698 -28.8067,-42.58382c0,-20.54043 5.76134,-38.82642 23.29585,-39.07691c7.2643,0 6.76331,3.25641 6.76331,10.01972c0,3.00592 3.25641,5.26035 6.26233,5.00986l40.83036,-2.25444c1.75345,0 3.5069,-0.50099 4.75937,-2.00394c1.25247,-1.25247 1.75345,-3.00592 1.50296,-4.75937c-3.7574,-35.31952 -32.81459,-43.58579 -62.37277,-44.08677c-50.09861,-1.00197 -77.40235,24.54832 -77.40235,77.65284c0,60.61931 46.5917,81.15974 87.17158,81.15974z" data-paper-data="{&quot;glyphName&quot;:&quot;c&quot;,&quot;glyphIndex&quot;:1,&quot;lastGlyphOfWord&quot;:true,&quot;word&quot;:1}"></path></g><path d="M228.28732,124.43543c14.87063,-6.29028 30.44152,-9.43543 46.71268,-9.43543c16.27026,0 31.84115,3.14514 46.71268,9.43543c6.89358,2.91554 13.40793,6.40677 19.54306,10.4737l-0.12109,0.02305l-0.7228,0.15226l-3.07023,0.69938l-0.76296,0.18907l-3.04179,0.8165l-0.80144,0.23424l-3.00665,0.93864l-0.83825,0.28276l-2.96315,1.06914l-0.87338,0.3363l-2.90961,1.203l-0.9035,0.39821l-2.84938,1.34019l-0.92191,0.46346l-2.7791,1.48241l-3.68091,0.85014c-11.08315,-4.44205 -23.08634,-6.66307 -36.00958,-6.66307c-4.93183,0 -9.72968,0.32347 -14.39352,0.9704l-10.08468,-6.19023l-2.95311,-1.49914l-2.90459,-1.18961l-3.39323,-1.06054l-1.96086,-0.33152l-2.6051,-0.31121l-3.5532,-0.11626l-2.604,0.31034l-3.0786,0.56553l-3.42787,0.94255l-0.72322,0.28387l-3.15371,1.64105l-0.64936,0.43031l-2.56996,1.77354l-2.61179,2.13996l-2.22696,2.54152l-0.86502,1.16619l-0.84996,1.24148l-7.91434,-2.66885c7.91437,-6.02235 16.51783,-10.99861 25.81038,-14.92876zM321.71268,345.56457c-14.87063,6.29028 -30.44152,9.43543 -46.71268,9.43543c-16.27116,0 -31.84205,-3.14514 -46.71268,-9.43543c-9.29014,-3.92913 -17.89154,-8.90381 -25.80421,-14.92406l7.81614,-2.71036l2.13005,2.84631l0.43656,0.47322l2.15167,2.2621l1.6765,1.57444l1.84047,1.377l1.98268,1.16451l2.0998,0.93362l2.92467,1.1093l3.42055,0.96878l2.2163,0.29947l1.68821,0.13553l3.55502,-0.02193l1.28039,-0.16044l3.10035,-0.48689l3.45127,-0.85289l2.10025,-0.85038l2.16004,-1.0156l2.00778,-1.08253l10.22977,-6.27897c4.61825,0.63359 9.36772,0.95038 14.24843,0.95038c17.47739,0 33.27203,-4.06222 47.38393,-12.18666l0.40461,0.21152l2.81759,1.40545l0.68934,0.32626l2.86778,1.30004l0.67595,0.2928l2.91296,1.1963l0.66424,0.25767l2.95311,1.09424l0.64918,0.22922l2.98825,0.99385l0.6358,0.20078l3.01836,0.89681l0.62074,0.17568l3.04681,0.80144l0.60735,0.15058l1.67746,0.38689c-8.48346,6.75881 -17.78372,12.27765 -27.90078,16.55651z" data-paper-data="{&quot;isLogoContainer&quot;:true}"></path></g></g></svg>